<?xml version="1.0" standalone="no"?>
<!DOCTYPE svg PUBLIC "-//W3C//DTD SVG 20010904//EN"
 "http://www.w3.org/TR/2001/REC-SVG-20010904/DTD/svg10.dtd">
<svg version="1.0" xmlns="http://www.w3.org/2000/svg"
 width="1024.000000pt" height="1024.000000pt" viewBox="0 0 1024.000000 1024.000000"
 preserveAspectRatio="xMidYMid meet">

<g transform="translate(0.000000,1024.000000) scale(0.100000,-0.100000)"
fill="#000000" stroke="none">
<path d="M4921 7323 c-21 -11 -57 -51 -95 -105 -103 -147 -224 -315 -356 -493
-70 -93 -142 -192 -160 -220 -91 -133 -136 -154 -205 -94 -19 17 -111 147
-205 288 -255 386 -259 391 -288 402 -36 14 -108 5 -132 -16 -11 -10 -52 -69
-91 -133 -40 -63 -146 -225 -237 -361 -91 -135 -174 -266 -186 -291 -20 -43
-21 -62 -24 -499 -1 -302 -6 -459 -13 -467 -12 -14 -62 -34 -154 -59 -105 -30
-332 -148 -445 -233 -151 -113 -222 -182 -310 -304 -145 -201 -218 -388 -247
-632 -29 -248 -7 -389 62 -409 32 -9 942 -9 978 0 12 3 1229 7 2704 8 1474 1
2686 6 2692 9 44 27 60 163 42 354 -17 184 -51 311 -123 461 -110 228 -332
469 -543 589 -84 47 -278 142 -292 142 -25 0 -167 52 -185 67 -26 23 -29 68
-32 508 -2 471 0 459 -102 604 -96 137 -283 418 -377 568 -55 88 -105 114
-177 96 -39 -10 -74 -56 -198 -253 -117 -186 -249 -371 -301 -424 -39 -39 -56
-49 -82 -49 -43 0 -74 34 -249 276 -74 103 -153 211 -175 241 -22 30 -93 129
-158 220 -65 91 -134 178 -152 192 -46 35 -135 43 -184 17z m-1003 -1526 l22
-23 -2 -544 -3 -544 -45 -14 c-97 -31 -660 -26 -691 5 -4 4 -11 251 -14 548
l-7 540 22 28 21 27 338 0 338 0 21 -23z m2905 16 c3 -5 6 -262 8 -572 l4
-564 -30 -10 c-17 -6 -172 -10 -353 -11 l-324 -1 -29 33 -29 32 0 524 0 523
25 27 24 26 350 0 c192 0 352 -3 354 -7z m-1580 -223 c189 -61 360 -209 450
-391 65 -133 88 -246 94 -469 6 -212 12 -239 62 -265 81 -41 387 -70 668 -61
261 8 394 21 478 47 103 32 101 23 97 346 -3 247 -2 273 13 273 25 0 172 -59
262 -106 176 -92 313 -205 435 -362 57 -72 67 -88 109 -172 67 -137 109 -311
109 -457 l0 -63 -3010 0 -3010 0 0 73 c0 191 79 431 193 590 85 118 240 264
357 334 79 48 292 147 358 167 l22 7 0 -288 c0 -221 3 -293 13 -307 18 -24
130 -54 262 -68 142 -16 596 -15 749 0 136 14 218 42 250 85 19 25 21 44 23
160 2 249 18 346 79 492 88 208 240 354 450 431 145 53 329 55 487 4z"/>
</g>
</svg>
